<svg width="30" height="66" viewBox="0 0 30 66" fill="none" xmlns="http://www.w3.org/2000/svg">
<path d="M15.7071 1.29289C15.3166 0.902367 14.6834 0.902367 14.2929 1.29289L7.92893 7.65685C7.53841 8.04738 7.53841 8.68054 7.92893 9.07107C8.31946 9.46159 8.95262 9.46159 9.34315 9.07107L15 3.41422L20.6569 9.07107C21.0474 9.46159 21.6805 9.46159 22.0711 9.07107C22.4616 8.68054 22.4616 8.04738 22.0711 7.65685L15.7071 1.29289ZM16 66L16 60.6667L14 60.6667L14 66L16 66ZM16 50L16 39.3333L14 39.3333L14 50L16 50ZM16 28.6667L16 18L14 18L14 28.6667L16 28.6667ZM16 7.33333L16 2L14 2L14 7.33333L16 7.33333ZM16.4142 0.585785C15.6332 -0.195259 14.3668 -0.195259 13.5858 0.585785L0.857867 13.3137C0.0768179 14.0948 0.0768178 15.3611 0.857867 16.1421C1.63892 16.9232 2.90525 16.9232 3.68629 16.1421L15 4.82843L26.3137 16.1421C27.0948 16.9232 28.3611 16.9232 29.1421 16.1421C29.9232 15.3611 29.9232 14.0948 29.1421 13.3137L16.4142 0.585785ZM17 66L17 60.6667L13 60.6667L13 66L17 66ZM17 50L17 39.3333L13 39.3333L13 50L17 50ZM17 28.6667L17 18L13 18L13 28.6667L17 28.6667ZM17 7.33333L17 2L13 2L13 7.33333L17 7.33333Z" fill="#E84146"/>
</svg>
