<svg width="27" height="17" viewBox="0 0 27 17" fill="none" xmlns="http://www.w3.org/2000/svg">
<g opacity="0.8">
<path d="M11.1082 7.68182C11.6685 7.39771 12.0924 7.08172 12.3825 6.74052C12.8987 6.12515 13.1538 5.3093 13.1538 4.29895C13.1538 3.31516 12.8987 2.47343 12.3891 1.76844C11.5387 0.618688 10.0989 0.0305361 8.06381 0H0V16.5745H7.51862C8.36574 16.5745 9.15089 16.5015 9.87605 16.3514C10.6019 16.2001 11.2295 15.9233 11.7608 15.519C12.2335 15.1672 12.6284 14.7304 12.9422 14.2152C13.4379 13.4372 13.6865 12.555 13.6865 11.5732C13.6865 10.6213 13.4682 9.81072 13.0371 9.14424C12.6 8.47842 11.9586 7.99117 11.1082 7.68182ZM3.32652 2.87902H6.95826C7.7566 2.87902 8.41452 2.96599 8.93136 3.13725C9.52863 3.38685 9.82727 3.89535 9.82727 4.67003C9.82727 5.36506 9.59917 5.85099 9.14891 6.12448C8.6947 6.39798 8.106 6.53606 7.38347 6.53606H3.32652V2.87902ZM9.06915 13.4067C8.66767 13.6025 8.10204 13.6988 7.3782 13.6988H3.32652V9.27833H7.43423C8.14951 9.28364 8.70656 9.37857 9.10474 9.55714C9.81343 9.87976 10.1661 10.4712 10.1661 11.3369C10.1661 12.3565 9.80156 13.0429 9.06915 13.4067Z" fill="white"/>
<path d="M24.4049 0.773438H17.2542V2.83662H24.4049V0.773438Z" fill="white"/>
<path d="M26.8897 8.91577C26.7413 7.95521 26.4137 7.11082 25.9041 6.38194C25.3457 5.55614 24.6364 4.95139 23.7748 4.56902C22.9158 4.18467 21.9487 3.99282 20.8721 3.99415C19.0645 3.99415 17.5964 4.56371 16.4605 5.69355C15.3279 6.8267 14.761 8.45707 14.761 10.5813C14.761 12.8463 15.3873 14.4833 16.6457 15.4877C17.8996 16.494 19.348 16.9952 20.9915 16.9952C22.981 16.9952 24.5289 16.3984 25.6345 15.2089C26.3418 14.4574 26.7413 13.7186 26.829 12.993H23.5348C23.3443 13.3515 23.1228 13.6323 22.8696 13.8361C22.4101 14.2098 21.8129 14.397 21.0804 14.397C20.3836 14.397 19.793 14.2423 19.2998 13.935C18.4863 13.4424 18.0611 12.5794 18.0071 11.35H26.9971C27.011 10.2906 26.9767 9.47671 26.8897 8.91577ZM18.0882 9.23375C18.2062 8.43715 18.4929 7.80452 18.9491 7.33719C19.4047 6.87184 20.0494 6.63685 20.8748 6.63552C21.6362 6.63552 22.2723 6.85458 22.7905 7.2947C23.3021 7.73814 23.5902 8.38205 23.6495 9.23375H18.0882Z" fill="white"/>
</g>
</svg>
