<svg width="24" height="24" viewBox="0 0 24 24" fill="none" xmlns="http://www.w3.org/2000/svg">
<g opacity="0.8">
<path d="M16.5 0H7.5C3.35859 0 0 3.35859 0 7.5V16.5C0 20.6414 3.35859 24 7.5 24H16.5C20.6414 24 24 20.6414 24 16.5V7.5C24 3.35859 20.6414 0 16.5 0ZM21.75 16.5C21.75 19.3951 19.3951 21.75 16.5 21.75H7.5C4.60488 21.75 2.25 19.3951 2.25 16.5V7.5C2.25 4.60488 4.60547 2.25 7.5 2.25H16.5C19.3951 2.25 21.75 4.60547 21.75 7.5V16.5Z" fill="white"/>
<path d="M12 6C8.68652 6 6 8.68652 6 12C6 15.3135 8.68652 18 12 18C15.3135 18 18 15.3135 18 12C18 8.68652 15.3135 6 12 6ZM12 15.75C9.93281 15.75 8.25 14.0672 8.25 12C8.25 9.93105 9.93281 8.25 12 8.25C14.0672 8.25 15.75 9.93105 15.75 12C15.75 14.0672 14.0672 15.75 12 15.75Z" fill="white"/>
<path d="M19.2488 5.54995C19.2488 5.99175 18.8908 6.34917 18.4496 6.34917C18.0084 6.34917 17.6504 5.99116 17.6504 5.54995C17.6504 5.10874 18.0084 4.75073 18.4496 4.75073C18.8908 4.75015 19.2488 5.10816 19.2488 5.54995Z" fill="white"/>
</g>
</svg>
