<svg width="30" height="32" viewBox="0 0 30 32" fill="none" xmlns="http://www.w3.org/2000/svg">
<path d="M26.2848 32C27.8771 29.384 28.9575 26.639 29.5261 23.7651C30.0948 20.8543 30.1516 17.9804 29.6967 15.1433C29.2418 12.3063 28.2941 9.59816 26.8535 7.019C25.4129 4.40299 23.4985 2.06333 21.1102 0L18.0395 1.8791C17.4708 2.24755 17.2244 2.70812 17.3002 3.2608C17.3381 3.77662 17.5087 4.18192 17.812 4.47668C18.7977 5.65573 19.6506 7.09269 20.3709 8.78756C21.0533 10.4824 21.4893 12.3063 21.6788 14.2591C21.8684 16.175 21.7736 18.1646 21.3945 20.228C21.0154 22.2913 20.2382 24.2809 19.063 26.1969C18.5702 26.9706 18.4375 27.6707 18.665 28.2971C18.8545 28.8866 19.3094 29.3287 20.0297 29.6235L26.2848 32ZM8.99799 32C10.5902 29.384 11.6706 26.639 12.2393 23.7651C12.8079 20.8543 12.8648 17.9804 12.4099 15.1433C11.955 12.3063 11.0072 9.59816 9.56664 7.019C8.12607 4.40299 6.21162 2.06333 3.82331 0L0.752619 1.8791C0.183973 2.24755 -0.062439 2.70812 0.0133801 3.2608C0.0512886 3.77662 0.221882 4.18192 0.52516 4.47668C1.51081 5.65573 2.36379 7.09269 3.08407 8.78756C3.76645 10.4824 4.20241 12.3063 4.39196 14.2591C4.5815 16.175 4.48673 18.1646 4.10763 20.228C3.72853 22.2913 2.95139 24.2809 1.77618 26.1969C1.28336 26.9706 1.15067 27.6707 1.37813 28.2971C1.56768 28.8866 2.02259 29.3287 2.74288 29.6235L8.99799 32Z" fill="#E84146"/>
</svg>
