<svg width="30" height="32" viewBox="0 0 30 32" fill="none" xmlns="http://www.w3.org/2000/svg">
<path d="M3.71516 32C2.12295 29.384 1.04252 26.639 0.473872 23.7651C-0.0947744 20.8543 -0.151639 17.9804 0.303278 15.1433C0.758195 12.3063 1.70594 9.59816 3.14651 7.019C4.58708 4.40299 6.50152 2.06333 8.88984 0L11.9605 1.8791C12.5292 2.24755 12.7756 2.70812 12.6998 3.2608C12.6619 3.77662 12.4913 4.18192 12.188 4.47668C11.2023 5.65573 10.3494 7.09269 9.62908 8.78756C8.9467 10.4824 8.51074 12.3063 8.32119 14.2591C8.13164 16.175 8.22642 18.1646 8.60552 20.228C8.98461 22.2913 9.76176 24.2809 10.937 26.1969C11.4298 26.9706 11.5625 27.6707 11.335 28.2971C11.1455 28.8866 10.6906 29.3287 9.97027 29.6235L3.71516 32ZM21.002 32C19.4098 29.384 18.3294 26.639 17.7607 23.7651C17.1921 20.8543 17.1352 17.9804 17.5901 15.1433C18.045 12.3063 18.9928 9.59816 20.4334 7.019C21.8739 4.40299 23.7884 2.06333 26.1767 0L29.2474 1.8791C29.816 2.24755 30.0624 2.70812 29.9866 3.2608C29.9487 3.77662 29.7781 4.18192 29.4748 4.47668C28.4892 5.65573 27.6362 7.09269 26.9159 8.78756C26.2336 10.4824 25.7976 12.3063 25.608 14.2591C25.4185 16.175 25.5133 18.1646 25.8924 20.228C26.2715 22.2913 27.0486 24.2809 28.2238 26.1969C28.7166 26.9706 28.8493 27.6707 28.6219 28.2971C28.4323 28.8866 27.9774 29.3287 27.2571 29.6235L21.002 32Z" fill="#E84146"/>
</svg>
