<svg width="29" height="29" viewBox="0 0 29 29" fill="none" xmlns="http://www.w3.org/2000/svg">
<path d="M18.9086 12.0658H14.7465V7.33928C14.7465 7.18409 14.6195 7.05711 14.4643 7.05711H12.3479C12.1928 7.05711 12.0658 7.18409 12.0658 7.33928V12.0658H7.90364C7.74844 12.0658 7.62146 12.1928 7.62146 12.3479V14.4643C7.62146 14.6195 7.74844 14.7465 7.90364 14.7465H12.0658V19.473C12.0658 19.6282 12.1928 19.7551 12.3479 19.7551H14.4643C14.6195 19.7551 14.7465 19.6282 14.7465 19.473V14.7465H18.9086C19.0638 14.7465 19.1908 14.6195 19.1908 14.4643V12.3479C19.1908 12.1928 19.0638 12.0658 18.9086 12.0658ZM28.9259 27.0212L23.7762 21.8715C28.0829 16.6194 27.7831 8.83836 22.8591 3.91787C17.6388 -1.30596 9.15933 -1.30596 3.91787 3.91787C-1.30596 9.15933 -1.30596 17.6388 3.91787 22.8591C8.83836 27.7831 16.6194 28.0829 21.8715 23.7762L27.0212 28.9259C27.1341 29.0247 27.314 29.0247 27.4092 28.9259L28.9259 27.4092C29.0247 27.314 29.0247 27.1341 28.9259 27.0212ZM20.9897 20.9897C16.7993 25.1765 10.0129 25.1765 5.82257 20.9897C1.63575 16.7993 1.63575 10.0129 5.82257 5.82257C10.0129 1.63575 16.7993 1.63575 20.9897 5.82257C25.1765 10.0129 25.1765 16.7993 20.9897 20.9897Z" fill="white"/>
</svg>
